<svg width="1791" height="300" viewBox="0 0 1791 300" fill="none" xmlns="http://www.w3.org/2000/svg">
<g filter="url(#filter0_n_18_4295)">
<path d="M286.525 75.2862L140.865 216.55H288.103V288.182H0V226.501L148.837 82.4593H11.5489V10.8281H286.525V75.3062V75.2862ZM539.881 288.202H305.087V10.8281H539.881V82.4593H403.392V114.309H535.506V182.743H403.392V216.57H539.881V288.202ZM765.505 143.341V10.8281H864.989V288.202H775.055L661.245 153.691V288.202H562.939V10.8281H652.473L765.485 143.341H765.505ZM1328.52 288.202H1230.24V10.8281H1328.52V104.738H1433.58V10.8281H1532.27V288.202H1433.58V192.294H1328.52V288.202ZM1790.12 288.202H1555.33V10.8281H1790.12V82.4593H1653.63V114.309H1785.74V182.743H1653.63V216.57H1790.12V288.202Z" fill="#8000FF"/>
<path d="M1127.74 174.392H1215.73C1205.14 248.481 1145.96 297.294 1053.43 298.993C1052.63 299.013 1051.77 299.013 1050.93 299.013C1050.09 299.013 1049.25 299.013 1048.45 298.993C945.971 297.115 882.452 237.472 882.452 149.716C882.452 61.9605 946.031 0.459558 1050.35 0H1051.53C1147.36 0.419597 1207.14 51.7503 1216.23 128.656H1128.94C1119.24 98.2256 1089.17 76.0469 1053.57 76.0469C1010.13 76.0469 972.905 105.279 972.905 149.816C972.905 194.353 1010.13 223.565 1053.57 223.565C1087.81 223.565 1116.95 203.025 1127.74 174.392Z" fill="#8000FF"/>
</g>
<defs>
<filter id="filter0_n_18_4295" x="0" y="0" width="1790.12" height="299.013" filterUnits="userSpaceOnUse" color-interpolation-filters="sRGB">
<feFlood flood-opacity="0" result="BackgroundImageFix"/>
<feBlend mode="normal" in="SourceGraphic" in2="BackgroundImageFix" result="shape"/>
<feTurbulence type="fractalNoise" baseFrequency="2.0578281879425049 2.0578281879425049" stitchTiles="stitch" numOctaves="3" result="noise" seed="4243" />
<feColorMatrix in="noise" type="luminanceToAlpha" result="alphaNoise" />
<feComponentTransfer in="alphaNoise" result="coloredNoise1">
<feFuncA type="discrete" tableValues="1 1 1 1 1 1 1 1 1 1 1 1 1 1 1 1 1 1 1 1 1 1 1 1 1 1 1 1 1 1 1 1 1 1 1 1 1 1 1 1 1 1 1 1 1 1 1 1 1 1 1 0 0 0 0 0 0 0 0 0 0 0 0 0 0 0 0 0 0 0 0 0 0 0 0 0 0 0 0 0 0 0 0 0 0 0 0 0 0 0 0 0 0 0 0 0 0 0 0 0 "/>
</feComponentTransfer>
<feComposite operator="in" in2="shape" in="coloredNoise1" result="noise1Clipped" />
<feFlood flood-color="rgba(0, 0, 0, 0.25)" result="color1Flood" />
<feComposite operator="in" in2="noise1Clipped" in="color1Flood" result="color1" />
<feMerge result="effect1_noise_18_4295">
<feMergeNode in="shape" />
<feMergeNode in="color1" />
</feMerge>
</filter>
</defs>
</svg>
